{
    "asset" : {
        "generator" : "Khronos glTF Blender I/O v1.4.40",
        "version" : "2.0"
    },
    "scene" : 0,
    "scenes" : [
        {
            "name" : "Scene",
            "nodes" : [
                0,
                1,
                2
            ]
        }
    ],
    "nodes" : [
        {
            "name" : "Light",
            "rotation" : [
                0.16907575726509094,
                0.7558803558349609,
                -0.27217137813568115,
                0.570947527885437
            ],
            "translation" : [
                4.076245307922363,
                5.903861999511719,
                -1.0054539442062378
            ]
        },
        {
            "name" : "Camera",
            "rotation" : [
                0.483536034822464,
                0.33687159419059753,
                -0.20870360732078552,
                0.7804827094078064
            ],
            "translation" : [
                7.358891487121582,
                4.958309173583984,
                6.925790786743164
            ]
        },
        {
            "mesh" : 0,
            "name" : "Cube",
            "translation" : [
                0,
                1,
                0
            ]
        }
    ],
    "materials" : [
        {
            "doubleSided" : true,
            "name" : "home",
            "pbrMetallicRoughness" : {
                "baseColorFactor" : [
                    0.19155709445476532,
                    0.07297080010175705,
                    0.8000000715255737,
                    1
                ],
                "metallicFactor" : 0,
                "roughnessFactor" : 0.5
            }
        },
        {
            "doubleSided" : true,
            "name" : "gagrage door",
            "pbrMetallicRoughness" : {
                "baseColorFactor" : [
                    0.800000011920929,
                    0.800000011920929,
                    0.800000011920929,
                    1
                ],
                "metallicFactor" : 0,
                "roughnessFactor" : 0.5
            }
        },
        {
            "doubleSided" : true,
            "name" : "front door",
            "pbrMetallicRoughness" : {
                "baseColorFactor" : [
                    0.8000000715255737,
                    0.12799185514450073,
                    0.09187004715204239,
                    1
                ],
                "metallicFactor" : 0,
                "roughnessFactor" : 0.5
            }
        },
        {
            "doubleSided" : true,
            "name" : "window",
            "pbrMetallicRoughness" : {
                "baseColorFactor" : [
                    0,
                    0,
                    0,
                    1
                ],
                "metallicFactor" : 0,
                "roughnessFactor" : 0.5
            }
        }
    ],
    "meshes" : [
        {
            "name" : "Cube.001",
            "primitives" : [
                {
                    "attributes" : {
                        "POSITION" : 0,
                        "NORMAL" : 1,
                        "TEXCOORD_0" : 2
                    },
                    "indices" : 3,
                    "material" : 0
                },
                {
                    "attributes" : {
                        "POSITION" : 4,
                        "NORMAL" : 5,
                        "TEXCOORD_0" : 6
                    },
                    "indices" : 7,
                    "material" : 1
                },
                {
                    "attributes" : {
                        "POSITION" : 8,
                        "NORMAL" : 9,
                        "TEXCOORD_0" : 10
                    },
                    "indices" : 11,
                    "material" : 2
                },
                {
                    "attributes" : {
                        "POSITION" : 12,
                        "NORMAL" : 13,
                        "TEXCOORD_0" : 14
                    },
                    "indices" : 15,
                    "material" : 3
                }
            ]
        }
    ],
    "accessors" : [
        {
            "bufferView" : 0,
            "componentType" : 5126,
            "count" : 1414,
            "max" : [
                2.8148863315582275,
                1.8048145771026611,
                1.6859227418899536
            ],
            "min" : [
                -1.7930612564086914,
                -1,
                -1
            ],
            "type" : "VEC3"
        },
        {
            "bufferView" : 1,
            "componentType" : 5126,
            "count" : 1414,
            "type" : "VEC3"
        },
        {
            "bufferView" : 2,
            "componentType" : 5126,
            "count" : 1414,
            "type" : "VEC2"
        },
        {
            "bufferView" : 3,
            "componentType" : 5123,
            "count" : 3447,
            "type" : "SCALAR"
        },
        {
            "bufferView" : 4,
            "componentType" : 5126,
            "count" : 10,
            "max" : [
                2.610349178314209,
                0.40412986278533936,
                0.5978290438652039
            ],
            "min" : [
                1.204537272453308,
                -0.9657411575317383,
                0.5978290438652039
            ],
            "type" : "VEC3"
        },
        {
            "bufferView" : 5,
            "componentType" : 5126,
            "count" : 10,
            "type" : "VEC3"
        },
        {
            "bufferView" : 6,
            "componentType" : 5126,
            "count" : 10,
            "type" : "VEC2"
        },
        {
            "bufferView" : 7,
            "componentType" : 5123,
            "count" : 24,
            "type" : "SCALAR"
        },
        {
            "bufferView" : 8,
            "componentType" : 5126,
            "count" : 12,
            "max" : [
                0.270771324634552,
                0.13835260272026062,
                0.9051002264022827
            ],
            "min" : [
                -0.270771324634552,
                -0.8239443302154541,
                0.9051002264022827
            ],
            "type" : "VEC3"
        },
        {
            "bufferView" : 9,
            "componentType" : 5126,
            "count" : 12,
            "type" : "VEC3"
        },
        {
            "bufferView" : 10,
            "componentType" : 5126,
            "count" : 12,
            "type" : "VEC2"
        },
        {
            "bufferView" : 11,
            "componentType" : 5123,
            "count" : 24,
            "type" : "SCALAR"
        },
        {
            "bufferView" : 12,
            "componentType" : 5126,
            "count" : 49,
            "max" : [
                0.270771324634552,
                1.2675749063491821,
                0.8695255517959595
            ],
            "min" : [
                -0.270771324634552,
                0.7138279676437378,
                0.8695255517959595
            ],
            "type" : "VEC3"
        },
        {
            "bufferView" : 13,
            "componentType" : 5126,
            "count" : 49,
            "type" : "VEC3"
        },
        {
            "bufferView" : 14,
            "componentType" : 5126,
            "count" : 49,
            "type" : "VEC2"
        },
        {
            "bufferView" : 15,
            "componentType" : 5123,
            "count" : 99,
            "type" : "SCALAR"
        }
    ],
    "bufferViews" : [
        {
            "buffer" : 0,
            "byteLength" : 16968,
            "byteOffset" : 0
        },
        {
            "buffer" : 0,
            "byteLength" : 16968,
            "byteOffset" : 16968
        },
        {
            "buffer" : 0,
            "byteLength" : 11312,
            "byteOffset" : 33936
        },
        {
            "buffer" : 0,
            "byteLength" : 6894,
            "byteOffset" : 45248
        },
        {
            "buffer" : 0,
            "byteLength" : 120,
            "byteOffset" : 52144
        },
        {
            "buffer" : 0,
            "byteLength" : 120,
            "byteOffset" : 52264
        },
        {
            "buffer" : 0,
            "byteLength" : 80,
            "byteOffset" : 52384
        },
        {
            "buffer" : 0,
            "byteLength" : 48,
            "byteOffset" : 52464
        },
        {
            "buffer" : 0,
            "byteLength" : 144,
            "byteOffset" : 52512
        },
        {
            "buffer" : 0,
            "byteLength" : 144,
            "byteOffset" : 52656
        },
        {
            "buffer" : 0,
            "byteLength" : 96,
            "byteOffset" : 52800
        },
        {
            "buffer" : 0,
            "byteLength" : 48,
            "byteOffset" : 52896
        },
        {
            "buffer" : 0,
            "byteLength" : 588,
            "byteOffset" : 52944
        },
        {
            "buffer" : 0,
            "byteLength" : 588,
            "byteOffset" : 53532
        },
        {
            "buffer" : 0,
            "byteLength" : 392,
            "byteOffset" : 54120
        },
        {
            "buffer" : 0,
            "byteLength" : 198,
            "byteOffset" : 54512
        }
    ],
    "buffers" : [
        {
            "byteLength" : 54712,
            "uri" : "data:application/octet-stream;base64,"
        }
    ]
}
